<svg xmlns="http://www.w3.org/2000/svg" width="1440" height="900" viewBox="0 0 1440 900" font-family="Arial,sans-serif">
<rect width="1440" height="900" fill="#f8f9fa"/>
<rect width="1440" height="60" fill="#212529"/><text x="40" y="38" fill="#ffffff" font-size="20" font-weight="bold">VITE &amp; GOURMAND</text><text x="250" y="35" fill="#6c757d" font-size="11">Traiteur · Bordeaux</text><text x="700" y="35" fill="#ffffff" font-size="14" font-weight="bold">Accueil</text><text x="830" y="35" fill="#adb5bd" font-size="14" font-weight="normal">Nos menus</text><text x="960" y="35" fill="#adb5bd" font-size="14" font-weight="normal">Contact</text><rect x="1280" y="15" width="110" height="32" rx="4" fill="#0d6efd"/><text x="1295" y="35" fill="#ffffff" font-size="13">Mon espace</text><rect y="60" width="1440" height="300" fill="#212529"/><text x="720" y="185" fill="#adb5bd" font-size="16" font-weight="normal" text-anchor="middle">Traiteur gastronomique bordelais</text><text x="720" y="230" fill="#ffffff" font-size="42" font-weight="bold" text-anchor="middle">Savourez l'art de recevoir</text><text x="720" y="270" fill="#adb5bd" font-size="16" font-weight="normal" text-anchor="middle">Menus raffinés pour vos événements, livrés à domicile</text><rect x="620" y="300" width="200" height="44" rx="8" fill="#198754"/><text x="720" y="327" fill="#ffffff" font-size="13" text-anchor="middle" font-weight="bold">Découvrir nos menus</text><text x="720" y="405" fill="#212529" font-size="26" font-weight="bold" text-anchor="middle">Nos menus</text><text x="720" y="430" fill="#6c757d" font-size="14" font-weight="normal" text-anchor="middle">Des créations gastronomiques pour toutes vos occasions</text><rect x="80" y="450" width="400" height="280" rx="8" fill="#ffffff" stroke="#dee2e6" stroke-width="1"/><rect x="80" y="450" width="400" height="120" rx="8" fill="#6c757d"/><text x="280" y="518" fill="#ffffff" font-size="13" font-weight="normal" text-anchor="middle">[ Image du menu ]</text><rect x="94" y="460" width="107" height="22" rx="11" fill="#198754"/><text x="147" y="475" fill="#ffffff" font-size="11" text-anchor="middle">Gastronomique</text><text x="100" y="600" fill="#212529" font-size="17" font-weight="bold" text-anchor="start">Menu Prestige</text><text x="100" y="622" fill="#6c757d" font-size="11" font-weight="normal" text-anchor="start">À partir de</text><text x="100" y="645" fill="#0d6efd" font-size="20" font-weight="bold" text-anchor="start">89 €/pers.</text><rect x="100" y="670" width="160" height="36" rx="6" fill="#0d6efd"/><text x="180" y="693" fill="#ffffff" font-size="12" text-anchor="middle" font-weight="bold">Commander</text><rect x="280" y="670" width="180" height="36" rx="6" fill="#ffffff"/><text x="370" y="693" fill="#212529" font-size="12" text-anchor="middle" font-weight="bold">Voir le détail</text><rect x="280" y="670" width="180" height="36" rx="6" fill="none" stroke="#dee2e6" stroke-width="1.5"/><rect x="510" y="450" width="400" height="280" rx="8" fill="#ffffff" stroke="#dee2e6" stroke-width="1"/><rect x="510" y="450" width="400" height="120" rx="8" fill="#6c757d"/><text x="710" y="518" fill="#ffffff" font-size="13" font-weight="normal" text-anchor="middle">[ Image du menu ]</text><rect x="524" y="460" width="100" height="22" rx="11" fill="#198754"/><text x="574" y="475" fill="#ffffff" font-size="11" text-anchor="middle">Traditionnel</text><text x="530" y="600" fill="#212529" font-size="17" font-weight="bold" text-anchor="start">Menu Terroir</text><text x="530" y="622" fill="#6c757d" font-size="11" font-weight="normal" text-anchor="start">À partir de</text><text x="530" y="645" fill="#0d6efd" font-size="20" font-weight="bold" text-anchor="start">65 €/pers.</text><rect x="530" y="670" width="160" height="36" rx="6" fill="#0d6efd"/><text x="610" y="693" fill="#ffffff" font-size="12" text-anchor="middle" font-weight="bold">Commander</text><rect x="710" y="670" width="180" height="36" rx="6" fill="#ffffff"/><text x="800" y="693" fill="#212529" font-size="12" text-anchor="middle" font-weight="bold">Voir le détail</text><rect x="710" y="670" width="180" height="36" rx="6" fill="none" stroke="#dee2e6" stroke-width="1.5"/><rect x="940" y="450" width="400" height="280" rx="8" fill="#ffffff" stroke="#dee2e6" stroke-width="1"/><rect x="940" y="450" width="400" height="120" rx="8" fill="#6c757d"/><text x="1140" y="518" fill="#ffffff" font-size="13" font-weight="normal" text-anchor="middle">[ Image du menu ]</text><rect x="954" y="460" width="86" height="22" rx="11" fill="#198754"/><text x="997" y="475" fill="#ffffff" font-size="11" text-anchor="middle">Végétarien</text><text x="960" y="600" fill="#212529" font-size="17" font-weight="bold" text-anchor="start">Menu Végétal</text><text x="960" y="622" fill="#6c757d" font-size="11" font-weight="normal" text-anchor="start">À partir de</text><text x="960" y="645" fill="#0d6efd" font-size="20" font-weight="bold" text-anchor="start">55 €/pers.</text><rect x="960" y="670" width="160" height="36" rx="6" fill="#0d6efd"/><text x="1040" y="693" fill="#ffffff" font-size="12" text-anchor="middle" font-weight="bold">Commander</text><rect x="1140" y="670" width="180" height="36" rx="6" fill="#ffffff"/><text x="1230" y="693" fill="#212529" font-size="12" text-anchor="middle" font-weight="bold">Voir le détail</text><rect x="1140" y="670" width="180" height="36" rx="6" fill="none" stroke="#dee2e6" stroke-width="1.5"/><rect y="760" width="1440" height="80" fill="#ffffff"/><text x="100" y="795" fill="#212529" font-size="22" font-weight="normal" text-anchor="middle">🍽</text><text x="100" y="820" fill="#212529" font-size="13" font-weight="bold" text-anchor="middle">Cuisine du terroir</text><text x="430" y="795" fill="#212529" font-size="22" font-weight="normal" text-anchor="middle">🚚</text><text x="430" y="820" fill="#212529" font-size="13" font-weight="bold" text-anchor="middle">Livraison à domicile</text><text x="760" y="795" fill="#212529" font-size="22" font-weight="normal" text-anchor="middle">👨‍🍳</text><text x="760" y="820" fill="#212529" font-size="13" font-weight="bold" text-anchor="middle">Chefs expérimentés</text><text x="1090" y="795" fill="#212529" font-size="22" font-weight="normal" text-anchor="middle">⭐</text><text x="1090" y="820" fill="#212529" font-size="13" font-weight="bold" text-anchor="middle">Avis certifiés</text><rect y="840" width="1440" height="60" fill="#212529"/><text x="40" y="868" fill="#6c757d" font-size="12">© 2025 Vite &amp; Gourmand — 12 rue des Chartrons, Bordeaux</text><text x="1100" y="868" fill="#6c757d" font-size="12">CGV · CGU · Contact</text></svg>