<svg xmlns="http://www.w3.org/2000/svg" width="1440" height="900" viewBox="0 0 1440 900" font-family="Arial,sans-serif">
<rect width="1440" height="900" fill="#f8f9fa"/>
<rect width="1440" height="60" fill="#212529"/><text x="40" y="38" fill="#ffffff" font-size="20" font-weight="bold">VITE &amp; GOURMAND</text><text x="250" y="35" fill="#6c757d" font-size="11">Traiteur · Bordeaux</text><text x="700" y="35" fill="#adb5bd" font-size="14" font-weight="normal">Accueil</text><text x="830" y="35" fill="#ffffff" font-size="14" font-weight="bold">Nos menus</text><text x="960" y="35" fill="#adb5bd" font-size="14" font-weight="normal">Contact</text><rect x="1280" y="15" width="110" height="32" rx="4" fill="#0d6efd"/><text x="1295" y="35" fill="#ffffff" font-size="13">Mon espace</text><text x="80" y="105" fill="#212529" font-size="28" font-weight="bold" text-anchor="start">Nos menus</text><text x="80" y="128" fill="#6c757d" font-size="14" font-weight="normal" text-anchor="start">Choisissez le menu adapté à votre événement</text><rect x="80" y="145" width="1280" height="60" rx="8" fill="#ffffff" stroke="#dee2e6" stroke-width="1"/><text x="100" y="181" fill="#212529" font-size="13" font-weight="bold" text-anchor="start">Thème :</text><rect x="180" y="162" width="125" height="28" rx="14" fill="#0d6efd" stroke="#dee2e6"/><text x="242" y="180" fill="#ffffff" font-size="12" font-weight="normal" text-anchor="middle">Tous</text><rect x="320" y="162" width="125" height="28" rx="14" fill="#ffffff" stroke="#dee2e6"/><text x="382" y="180" fill="#212529" font-size="12" font-weight="normal" text-anchor="middle">Gastronomique</text><rect x="460" y="162" width="125" height="28" rx="14" fill="#ffffff" stroke="#dee2e6"/><text x="522" y="180" fill="#212529" font-size="12" font-weight="normal" text-anchor="middle">Traditionnel</text><rect x="600" y="162" width="125" height="28" rx="14" fill="#ffffff" stroke="#dee2e6"/><text x="662" y="180" fill="#212529" font-size="12" font-weight="normal" text-anchor="middle">Végétarien</text><rect x="740" y="162" width="125" height="28" rx="14" fill="#ffffff" stroke="#dee2e6"/><text x="802" y="180" fill="#212529" font-size="12" font-weight="normal" text-anchor="middle">Marin</text><rect x="80" y="220" width="400" height="270" rx="8" fill="#ffffff" stroke="#dee2e6" stroke-width="1"/><rect x="80" y="220" width="400" height="110" rx="8" fill="#6c757d"/><rect x="90" y="228" width="107" height="22" rx="11" fill="#198754"/><text x="143" y="243" fill="#ffffff" font-size="11" text-anchor="middle">Gastronomique</text><text x="96" y="360" fill="#212529" font-size="16" font-weight="bold" text-anchor="start">Menu Prestige</text><text x="96" y="380" fill="#6c757d" font-size="11" font-weight="normal" text-anchor="start">min. 20 pers.</text><text x="96" y="408" fill="#0d6efd" font-size="22" font-weight="bold" text-anchor="start">89€/pers.</text><text x="280" y="408" fill="#6c757d" font-size="11" font-weight="normal" text-anchor="start">par personne</text><rect x="96" y="430" width="160" height="34" rx="6" fill="#0d6efd"/><text x="176" y="452" fill="#ffffff" font-size="12" text-anchor="middle" font-weight="bold">Commander</text><rect x="275" y="430" width="185" height="34" rx="6" fill="#ffffff"/><text x="367" y="452" fill="#0d6efd" font-size="12" text-anchor="middle" font-weight="bold">Voir le détail</text><rect x="275" y="430" width="185" height="34" rx="6" fill="none" stroke="#0d6efd" stroke-width="1.5"/><rect x="510" y="220" width="400" height="270" rx="8" fill="#ffffff" stroke="#dee2e6" stroke-width="1"/><rect x="510" y="220" width="400" height="110" rx="8" fill="#6c757d"/><rect x="520" y="228" width="100" height="22" rx="11" fill="#ffc107"/><text x="570" y="243" fill="#212529" font-size="11" text-anchor="middle">Traditionnel</text><text x="526" y="360" fill="#212529" font-size="16" font-weight="bold" text-anchor="start">Menu Terroir</text><text x="526" y="380" fill="#6c757d" font-size="11" font-weight="normal" text-anchor="start">min. 15 pers.</text><text x="526" y="408" fill="#0d6efd" font-size="22" font-weight="bold" text-anchor="start">65€/pers.</text><text x="710" y="408" fill="#6c757d" font-size="11" font-weight="normal" text-anchor="start">par personne</text><rect x="526" y="430" width="160" height="34" rx="6" fill="#0d6efd"/><text x="606" y="452" fill="#ffffff" font-size="12" text-anchor="middle" font-weight="bold">Commander</text><rect x="705" y="430" width="185" height="34" rx="6" fill="#ffffff"/><text x="797" y="452" fill="#0d6efd" font-size="12" text-anchor="middle" font-weight="bold">Voir le détail</text><rect x="705" y="430" width="185" height="34" rx="6" fill="none" stroke="#0d6efd" stroke-width="1.5"/><rect x="940" y="220" width="400" height="270" rx="8" fill="#ffffff" stroke="#dee2e6" stroke-width="1"/><rect x="940" y="220" width="400" height="110" rx="8" fill="#6c757d"/><rect x="950" y="228" width="86" height="22" rx="11" fill="#198754"/><text x="993" y="243" fill="#ffffff" font-size="11" text-anchor="middle">Végétarien</text><text x="956" y="360" fill="#212529" font-size="16" font-weight="bold" text-anchor="start">Menu Végétal</text><text x="956" y="380" fill="#6c757d" font-size="11" font-weight="normal" text-anchor="start">min. 10 pers.</text><text x="956" y="408" fill="#0d6efd" font-size="22" font-weight="bold" text-anchor="start">55€/pers.</text><text x="1140" y="408" fill="#6c757d" font-size="11" font-weight="normal" text-anchor="start">par personne</text><rect x="956" y="430" width="160" height="34" rx="6" fill="#0d6efd"/><text x="1036" y="452" fill="#ffffff" font-size="12" text-anchor="middle" font-weight="bold">Commander</text><rect x="1135" y="430" width="185" height="34" rx="6" fill="#ffffff"/><text x="1227" y="452" fill="#0d6efd" font-size="12" text-anchor="middle" font-weight="bold">Voir le détail</text><rect x="1135" y="430" width="185" height="34" rx="6" fill="none" stroke="#0d6efd" stroke-width="1.5"/><rect x="80" y="510" width="400" height="270" rx="8" fill="#ffffff" stroke="#dee2e6" stroke-width="1"/><rect x="80" y="510" width="400" height="110" rx="8" fill="#6c757d"/><rect x="90" y="518" width="51" height="22" rx="11" fill="#0dcaf0"/><text x="115" y="533" fill="#ffffff" font-size="11" text-anchor="middle">Marin</text><text x="96" y="650" fill="#212529" font-size="16" font-weight="bold" text-anchor="start">Menu Marin</text><text x="96" y="670" fill="#6c757d" font-size="11" font-weight="normal" text-anchor="start">min. 20 pers.</text><text x="96" y="698" fill="#0d6efd" font-size="22" font-weight="bold" text-anchor="start">75€/pers.</text><text x="280" y="698" fill="#6c757d" font-size="11" font-weight="normal" text-anchor="start">par personne</text><rect x="96" y="720" width="160" height="34" rx="6" fill="#0d6efd"/><text x="176" y="742" fill="#ffffff" font-size="12" text-anchor="middle" font-weight="bold">Commander</text><rect x="275" y="720" width="185" height="34" rx="6" fill="#ffffff"/><text x="367" y="742" fill="#0d6efd" font-size="12" text-anchor="middle" font-weight="bold">Voir le détail</text><rect x="275" y="720" width="185" height="34" rx="6" fill="none" stroke="#0d6efd" stroke-width="1.5"/><rect x="510" y="510" width="400" height="270" rx="8" fill="#ffffff" stroke="#dee2e6" stroke-width="1"/><rect x="510" y="510" width="400" height="110" rx="8" fill="#6c757d"/><rect x="520" y="518" width="107" height="22" rx="11" fill="#198754"/><text x="573" y="533" fill="#ffffff" font-size="11" text-anchor="middle">Gastronomique</text><text x="526" y="650" fill="#212529" font-size="16" font-weight="bold" text-anchor="start">Menu Prestige+</text><text x="526" y="670" fill="#6c757d" font-size="11" font-weight="normal" text-anchor="start">min. 30 pers.</text><text x="526" y="698" fill="#0d6efd" font-size="22" font-weight="bold" text-anchor="start">110€/pers.</text><text x="710" y="698" fill="#6c757d" font-size="11" font-weight="normal" text-anchor="start">par personne</text><rect x="526" y="720" width="160" height="34" rx="6" fill="#0d6efd"/><text x="606" y="742" fill="#ffffff" font-size="12" text-anchor="middle" font-weight="bold">Commander</text><rect x="705" y="720" width="185" height="34" rx="6" fill="#ffffff"/><text x="797" y="742" fill="#0d6efd" font-size="12" text-anchor="middle" font-weight="bold">Voir le détail</text><rect x="705" y="720" width="185" height="34" rx="6" fill="none" stroke="#0d6efd" stroke-width="1.5"/><rect x="940" y="510" width="400" height="270" rx="8" fill="#ffffff" stroke="#dee2e6" stroke-width="1"/><rect x="940" y="510" width="400" height="110" rx="8" fill="#6c757d"/><rect x="950" y="518" width="72" height="22" rx="11" fill="#0d6efd"/><text x="986" y="533" fill="#ffffff" font-size="11" text-anchor="middle">Cocktail</text><text x="956" y="650" fill="#212529" font-size="16" font-weight="bold" text-anchor="start">Menu Cocktail</text><text x="956" y="670" fill="#6c757d" font-size="11" font-weight="normal" text-anchor="start">min. 25 pers.</text><text x="956" y="698" fill="#0d6efd" font-size="22" font-weight="bold" text-anchor="start">45€/pers.</text><text x="1140" y="698" fill="#6c757d" font-size="11" font-weight="normal" text-anchor="start">par personne</text><rect x="956" y="720" width="160" height="34" rx="6" fill="#0d6efd"/><text x="1036" y="742" fill="#ffffff" font-size="12" text-anchor="middle" font-weight="bold">Commander</text><rect x="1135" y="720" width="185" height="34" rx="6" fill="#ffffff"/><text x="1227" y="742" fill="#0d6efd" font-size="12" text-anchor="middle" font-weight="bold">Voir le détail</text><rect x="1135" y="720" width="185" height="34" rx="6" fill="none" stroke="#0d6efd" stroke-width="1.5"/><rect y="840" width="1440" height="60" fill="#212529"/><text x="40" y="868" fill="#6c757d" font-size="12">© 2025 Vite &amp; Gourmand — 12 rue des Chartrons, Bordeaux</text><text x="1100" y="868" fill="#6c757d" font-size="12">CGV · CGU · Contact</text></svg>