<svg xmlns="http://www.w3.org/2000/svg" width="1440" height="900" viewBox="0 0 1440 900" font-family="Arial,sans-serif">
<rect width="1440" height="900" fill="#f8f9fa"/>
<rect width="1440" height="60" fill="#212529"/><text x="40" y="38" fill="#ffffff" font-size="20" font-weight="bold">VITE &amp; GOURMAND</text><text x="250" y="35" fill="#6c757d" font-size="11">Traiteur · Bordeaux</text><text x="700" y="35" fill="#adb5bd" font-size="14" font-weight="normal">Accueil</text><text x="830" y="35" fill="#adb5bd" font-size="14" font-weight="normal">Nos menus</text><text x="960" y="35" fill="#adb5bd" font-size="14" font-weight="normal">Contact</text><rect x="1280" y="15" width="110" height="32" rx="4" fill="#0d6efd"/><text x="1295" y="35" fill="#ffffff" font-size="13">Mon espace</text><text x="80" y="105" fill="#212529" font-size="26" font-weight="bold" text-anchor="start">Commander — Menu Prestige</text><text x="80" y="128" fill="#6c757d" font-size="13" font-weight="normal" text-anchor="start">Complétez les informations ci-dessous pour finaliser votre commande</text><rect x="80" y="148" width="760" height="680" rx="8" fill="#ffffff" stroke="#dee2e6" stroke-width="1"/><text x="110" y="175" fill="#212529" font-size="12" font-weight="bold" text-anchor="start">Date de prestation</text><rect x="110" y="185" width="340" height="36" rx="6" fill="#ffffff" stroke="#dee2e6" stroke-width="1.5"/><text x="122" y="208" fill="#6c757d" font-size="13">jj/mm/aaaa</text><text x="470" y="175" fill="#212529" font-size="12" font-weight="bold" text-anchor="start">Heure de livraison</text><rect x="470" y="185" width="340" height="36" rx="6" fill="#ffffff" stroke="#dee2e6" stroke-width="1.5"/><text x="482" y="208" fill="#6c757d" font-size="13">ex : 12h00</text><text x="110" y="265" fill="#212529" font-size="12" font-weight="bold" text-anchor="start">Ville de livraison</text><rect x="110" y="275" width="700" height="36" rx="6" fill="#ffffff" stroke="#dee2e6" stroke-width="1.5"/><text x="122" y="298" fill="#6c757d" font-size="13">Bordeaux</text><text x="110" y="355" fill="#212529" font-size="12" font-weight="bold" text-anchor="start">Nombre de personnes (min. 20)</text><rect x="110" y="365" width="700" height="36" rx="6" fill="#ffffff" stroke="#dee2e6" stroke-width="1.5"/><text x="122" y="388" fill="#6c757d" font-size="13">20</text><rect x="110" y="430" width="700" height="44" rx="6" fill="#e7f1ff" stroke="#0d6efd" stroke-width="1"/><text x="125" y="447" fill="#0d6efd" font-size="12" font-weight="normal" text-anchor="start">ℹ️  Réduction de 10% appliquée automatiquement dès 25 personnes (min + 5)</text><text x="125" y="466" fill="#0d6efd" font-size="12" font-weight="normal" text-anchor="start">    Livraison gratuite pour Bordeaux / 50€ pour les autres communes</text><text x="110" y="510" fill="#212529" font-size="12" font-weight="bold" text-anchor="start">Prêt de matériel</text><rect x="110" y="520" width="18" height="18" rx="3" fill="#ffffff" stroke="#dee2e6" stroke-width="1.5"/><text x="136" y="534" fill="#212529" font-size="12" font-weight="normal" text-anchor="start">Je souhaite bénéficier du prêt de matériel (vaisselle, buffet…)</text><rect x="110" y="570" width="340" height="44" rx="8" fill="#198754"/><text x="280" y="597" fill="#ffffff" font-size="13" text-anchor="middle" font-weight="bold">Confirmer la commande</text><rect x="470" y="570" width="340" height="44" rx="8" fill="#ffffff"/><text x="640" y="597" fill="#212529" font-size="13" text-anchor="middle" font-weight="bold">Retour aux menus</text><rect x="470" y="570" width="340" height="44" rx="8" fill="none" stroke="#dee2e6" stroke-width="1.5"/><rect x="880" y="148" width="460" height="400" rx="8" fill="#ffffff" stroke="#dee2e6" stroke-width="1"/><rect x="880" y="148" width="460" height="50" rx="8" fill="#212529"/><text x="1110" y="180" fill="#ffffff" font-size="15" font-weight="bold" text-anchor="middle">Récapitulatif</text><text x="900" y="215" fill="#6c757d" font-size="13" font-weight="normal" text-anchor="start">Menu</text><text x="1320" y="215" fill="#212529" font-size="13" font-weight="normal" text-anchor="end">Menu Prestige</text><line x1="900" y1="223" x2="1320" y2="223" stroke="#dee2e6" stroke-width="0.5"/><text x="900" y="253" fill="#6c757d" font-size="13" font-weight="normal" text-anchor="start">Personnes</text><text x="1320" y="253" fill="#212529" font-size="13" font-weight="normal" text-anchor="end">20</text><line x1="900" y1="261" x2="1320" y2="261" stroke="#dee2e6" stroke-width="0.5"/><text x="900" y="291" fill="#6c757d" font-size="13" font-weight="normal" text-anchor="start">Sous-total</text><text x="1320" y="291" fill="#212529" font-size="13" font-weight="normal" text-anchor="end">1 780,00 €</text><line x1="900" y1="299" x2="1320" y2="299" stroke="#dee2e6" stroke-width="0.5"/><text x="900" y="329" fill="#6c757d" font-size="13" font-weight="normal" text-anchor="start">Réduction (0%)</text><text x="1320" y="329" fill="#212529" font-size="13" font-weight="normal" text-anchor="end">0,00 €</text><line x1="900" y1="337" x2="1320" y2="337" stroke="#dee2e6" stroke-width="0.5"/><text x="900" y="367" fill="#6c757d" font-size="13" font-weight="normal" text-anchor="start">Livraison</text><text x="1320" y="367" fill="#212529" font-size="13" font-weight="normal" text-anchor="end">0,00 €</text><line x1="900" y1="375" x2="1320" y2="375" stroke="#dee2e6" stroke-width="0.5"/><rect x="880" y="405" width="460" height="50" rx="6" fill="#f8f9fa"/><text x="900" y="435" fill="#212529" font-size="15" font-weight="bold" text-anchor="start">TOTAL TTC</text><text x="1320" y="435" fill="#198754" font-size="18" font-weight="bold" text-anchor="end">1 780,00 €</text><rect y="840" width="1440" height="60" fill="#212529"/><text x="40" y="868" fill="#6c757d" font-size="12">© 2025 Vite &amp; Gourmand — 12 rue des Chartrons, Bordeaux</text><text x="1100" y="868" fill="#6c757d" font-size="12">CGV · CGU · Contact</text></svg>