<svg xmlns="http://www.w3.org/2000/svg" width="1440" height="900" viewBox="0 0 1440 900" font-family="Arial,sans-serif">
<rect width="1440" height="900" fill="#f8f9fa"/>
<rect width="1440" height="60" fill="#212529"/><text x="40" y="38" fill="#ffffff" font-size="20" font-weight="bold">VITE &amp; GOURMAND</text><text x="250" y="35" fill="#6c757d" font-size="11">Traiteur · Bordeaux</text><text x="700" y="35" fill="#adb5bd" font-size="14" font-weight="normal">Accueil</text><text x="830" y="35" fill="#adb5bd" font-size="14" font-weight="normal">Nos menus</text><text x="960" y="35" fill="#adb5bd" font-size="14" font-weight="normal">Contact</text><rect x="1280" y="15" width="110" height="32" rx="4" fill="#0d6efd"/><text x="1295" y="35" fill="#ffffff" font-size="13">Mon espace</text><rect x="40" y="80" width="220" height="700" rx="8" fill="#ffffff" stroke="#dee2e6" stroke-width="1"/><rect x="40" y="80" width="220" height="80" rx="8" fill="#ffffff" stroke="#dee2e6"/><circle cx="150" cy="115" r="22" fill="#0d6efd"/><text x="150" y="152" fill="#212529" font-size="11" font-weight="bold" text-anchor="middle">Mon espace</text><rect x="40" y="175" width="220" height="36" fill="#0d6efd"/><text x="60" y="198" fill="#ffffff" font-size="12" font-weight="normal" text-anchor="start">Mes commandes</text><rect x="40" y="211" width="220" height="36" fill="#ffffff"/><text x="60" y="234" fill="#212529" font-size="12" font-weight="normal" text-anchor="start">Mon profil</text><rect x="40" y="257" width="220" height="36" fill="#ffffff"/><text x="60" y="280" fill="#dc3545" font-size="12" font-weight="normal" text-anchor="start">Déconnexion</text><text x="320" y="105" fill="#212529" font-size="26" font-weight="bold" text-anchor="start">Mes commandes</text><rect x="320" y="130" width="1080" height="700" rx="8" fill="#ffffff" stroke="#dee2e6" stroke-width="1"/><rect x="320" y="130" width="1080" height="44" rx="8" fill="#f8f9fa"/><text x="340" y="158" fill="#212529" font-size="12" font-weight="bold" text-anchor="start">N° Commande</text><text x="520" y="158" fill="#212529" font-size="12" font-weight="bold" text-anchor="start">Menu</text><text x="720" y="158" fill="#212529" font-size="12" font-weight="bold" text-anchor="start">Date prestation</text><text x="880" y="158" fill="#212529" font-size="12" font-weight="bold" text-anchor="start">Total</text><text x="1000" y="158" fill="#212529" font-size="12" font-weight="bold" text-anchor="start">Statut</text><text x="1140" y="158" fill="#212529" font-size="12" font-weight="bold" text-anchor="start">Actions</text><rect x="320" y="185" width="1080" height="50" fill=white"/><text x="340" y="213" fill="#6c757d" font-size="12" font-weight="normal" text-anchor="start">VG-2025-0042</text><text x="520" y="213" fill="#212529" font-size="12" font-weight="normal" text-anchor="start">Menu Prestige</text><text x="720" y="213" fill="#212529" font-size="12" font-weight="normal" text-anchor="start">15/08/2025</text><text x="880" y="213" fill="#212529" font-size="12" font-weight="normal" text-anchor="start">1 780,00 €</text><rect x="1000" y="199" width="86" height="22" rx="11" fill="#ffc107"/><text x="1043" y="214" fill="#212529" font-size="11" text-anchor="middle">en attente</text><rect x="1160" y="197" width="80" height="28" rx="4" fill="#ffffff"/><text x="1200" y="216" fill="#0d6efd" font-size="11" text-anchor="middle" font-weight="bold">Détail</text><rect x="1160" y="197" width="80" height="28" rx="4" fill="none" stroke="#0d6efd" stroke-width="1"/><rect x="320" y="240" width="1080" height="50" fill=#f8f9fa"/><text x="340" y="268" fill="#6c757d" font-size="12" font-weight="normal" text-anchor="start">VG-2025-0031</text><text x="520" y="268" fill="#212529" font-size="12" font-weight="normal" text-anchor="start">Menu Terroir</text><text x="720" y="268" fill="#212529" font-size="12" font-weight="normal" text-anchor="start">02/07/2025</text><text x="880" y="268" fill="#212529" font-size="12" font-weight="normal" text-anchor="start">975,00 €</text><rect x="1000" y="254" width="72" height="22" rx="11" fill="#198754"/><text x="1036" y="269" fill="#ffffff" font-size="11" text-anchor="middle">terminée</text><rect x="1160" y="252" width="80" height="28" rx="4" fill="#ffffff"/><text x="1200" y="271" fill="#0d6efd" font-size="11" text-anchor="middle" font-weight="bold">Détail</text><rect x="1160" y="252" width="80" height="28" rx="4" fill="none" stroke="#0d6efd" stroke-width="1"/><rect x="1250" y="252" width="110" height="28" rx="4" fill="#198754"/><text x="1305" y="271" fill="#ffffff" font-size="10" text-anchor="middle" font-weight="bold">Laisser un avis</text><rect x="320" y="295" width="1080" height="50" fill=white"/><text x="340" y="323" fill="#6c757d" font-size="12" font-weight="normal" text-anchor="start">VG-2025-0018</text><text x="520" y="323" fill="#212529" font-size="12" font-weight="normal" text-anchor="start">Menu Végétal</text><text x="720" y="323" fill="#212529" font-size="12" font-weight="normal" text-anchor="start">10/05/2025</text><text x="880" y="323" fill="#212529" font-size="12" font-weight="normal" text-anchor="start">550,00 €</text><rect x="1000" y="309" width="65" height="22" rx="11" fill="#dc3545"/><text x="1032" y="324" fill="#ffffff" font-size="11" text-anchor="middle">annulée</text><rect x="1160" y="307" width="80" height="28" rx="4" fill="#ffffff"/><text x="1200" y="326" fill="#0d6efd" font-size="11" text-anchor="middle" font-weight="bold">Détail</text><rect x="1160" y="307" width="80" height="28" rx="4" fill="none" stroke="#0d6efd" stroke-width="1"/><rect y="840" width="1440" height="60" fill="#212529"/><text x="40" y="868" fill="#6c757d" font-size="12">© 2025 Vite &amp; Gourmand — 12 rue des Chartrons, Bordeaux</text><text x="1100" y="868" fill="#6c757d" font-size="12">CGV · CGU · Contact</text></svg>