<svg xmlns="http://www.w3.org/2000/svg" width="1440" height="900" viewBox="0 0 1440 900" font-family="Arial,sans-serif">
<rect width="1440" height="900" fill="#f8f9fa"/>
<rect width="1440" height="60" fill="#212529"/><text x="40" y="38" fill="#ffffff" font-size="20" font-weight="bold">VITE &amp; GOURMAND</text><text x="250" y="35" fill="#6c757d" font-size="11">Traiteur · Bordeaux</text><text x="700" y="35" fill="#adb5bd" font-size="14" font-weight="normal">Accueil</text><text x="830" y="35" fill="#adb5bd" font-size="14" font-weight="normal">Nos menus</text><text x="960" y="35" fill="#adb5bd" font-size="14" font-weight="normal">Contact</text><rect x="1280" y="15" width="110" height="32" rx="4" fill="#0d6efd"/><text x="1295" y="35" fill="#ffffff" font-size="13">Mon espace</text><rect x="40" y="80" width="220" height="700" rx="8" fill="#ffffff" stroke="#dee2e6" stroke-width="1"/><rect x="40" y="80" width="220" height="80" rx="8" fill="#ffffff" stroke="#dee2e6"/><circle cx="150" cy="115" r="22" fill="#0d6efd"/><text x="150" y="152" fill="#212529" font-size="11" font-weight="bold" text-anchor="middle">Espace Employé</text><rect x="40" y="175" width="220" height="36" fill="#0d6efd"/><text x="60" y="198" fill="#ffffff" font-size="12" font-weight="normal" text-anchor="start">Commandes</text><rect x="40" y="211" width="220" height="36" fill="#ffffff"/><text x="60" y="234" fill="#212529" font-size="12" font-weight="normal" text-anchor="start">Menus</text><rect x="40" y="247" width="220" height="36" fill="#ffffff"/><text x="60" y="270" fill="#212529" font-size="12" font-weight="normal" text-anchor="start">Avis clients</text><rect x="40" y="293" width="220" height="36" fill="#ffffff"/><text x="60" y="316" fill="#dc3545" font-size="12" font-weight="normal" text-anchor="start">Déconnexion</text><text x="320" y="105" fill="#212529" font-size="26" font-weight="bold" text-anchor="start">Gestion des commandes</text><rect x="320" y="125" width="1080" height="60" rx="8" fill="#ffffff" stroke="#dee2e6" stroke-width="1"/><text x="340" y="155" fill="#212529" font-size="12" font-weight="bold" text-anchor="start">Filtrer par statut :</text><rect x="460" y="135" width="200" height="34" rx="6" fill="#ffffff" stroke="#dee2e6" stroke-width="1.5"/><text x="472" y="158" fill="#6c757d" font-size="13">— Tous —</text><text x="690" y="155" fill="#212529" font-size="12" font-weight="bold" text-anchor="start">Client :</text><rect x="740" y="135" width="300" height="34" rx="6" fill="#ffffff" stroke="#dee2e6" stroke-width="1.5"/><text x="752" y="158" fill="#6c757d" font-size="13">Nom, prénom ou email…</text><rect x="1060" y="135" width="90" height="34" rx="4" fill="#0d6efd"/><text x="1105" y="157" fill="#ffffff" font-size="12" text-anchor="middle" font-weight="bold">Filtrer</text><rect x="1160" y="135" width="34" height="34" rx="4" fill="#ffffff"/><text x="1177" y="157" fill="#6c757d" font-size="12" text-anchor="middle" font-weight="bold">✕</text><rect x="1160" y="135" width="34" height="34" rx="4" fill="none" stroke="#dee2e6"/><rect x="320" y="200" width="1080" height="640" rx="8" fill="#ffffff" stroke="#dee2e6" stroke-width="1"/><rect x="320" y="200" width="1080" height="44" rx="8" fill="#212529"/><text x="340" y="227" fill="#ffffff" font-size="11" font-weight="bold" text-anchor="start">N° Commande</text><text x="495" y="227" fill="#ffffff" font-size="11" font-weight="bold" text-anchor="start">Client</text><text x="675" y="227" fill="#ffffff" font-size="11" font-weight="bold" text-anchor="start">Menu</text><text x="830" y="227" fill="#ffffff" font-size="11" font-weight="bold" text-anchor="start">Prestation</text><text x="940" y="227" fill="#ffffff" font-size="11" font-weight="bold" text-anchor="start">Total</text><text x="1040" y="227" fill="#ffffff" font-size="11" font-weight="bold" text-anchor="start">Statut actuel</text><text x="1185" y="227" fill="#ffffff" font-size="11" font-weight="bold" text-anchor="start">Changer statut</text><rect x="320" y="255" width="1080" height="48" fill=#ffffff"/><text x="340" y="283" fill="#6c757d" font-size="11" font-weight="normal" text-anchor="start">VG-2025-0042</text><text x="495" y="283" fill="#212529" font-size="11" font-weight="normal" text-anchor="start">Martin Dupont</text><text x="675" y="283" fill="#212529" font-size="11" font-weight="normal" text-anchor="start">Menu Prestige</text><text x="830" y="283" fill="#212529" font-size="11" font-weight="normal" text-anchor="start">15/08/2025</text><text x="940" y="283" fill="#212529" font-size="11" font-weight="normal" text-anchor="start">1 780 €</text><rect x="1040" y="269" width="86" height="22" rx="11" fill="#ffc107"/><text x="1083" y="284" fill="#212529" font-size="10" text-anchor="middle">en attente</text><rect x="1185" y="267" width="110" height="28" rx="4" fill="#ffffff"/><text x="1240" y="286" fill="#0d6efd" font-size="11" text-anchor="middle" font-weight="bold">Changer</text><rect x="1185" y="267" width="110" height="28" rx="4" fill="none" stroke="#0d6efd" stroke-width="1"/><rect x="320" y="307" width="1080" height="48" fill=#f8f9fa"/><text x="340" y="335" fill="#6c757d" font-size="11" font-weight="normal" text-anchor="start">VG-2025-0041</text><text x="495" y="335" fill="#212529" font-size="11" font-weight="normal" text-anchor="start">Sophie Bernard</text><text x="675" y="335" fill="#212529" font-size="11" font-weight="normal" text-anchor="start">Menu Terroir</text><text x="830" y="335" fill="#212529" font-size="11" font-weight="normal" text-anchor="start">12/08/2025</text><text x="940" y="335" fill="#212529" font-size="11" font-weight="normal" text-anchor="start">975 €</text><rect x="1040" y="321" width="72" height="22" rx="11" fill="#0dcaf0"/><text x="1076" y="336" fill="#ffffff" font-size="10" text-anchor="middle">acceptée</text><rect x="1185" y="319" width="110" height="28" rx="4" fill="#ffffff"/><text x="1240" y="338" fill="#0d6efd" font-size="11" text-anchor="middle" font-weight="bold">Changer</text><rect x="1185" y="319" width="110" height="28" rx="4" fill="none" stroke="#0d6efd" stroke-width="1"/><rect x="320" y="359" width="1080" height="48" fill=#ffffff"/><text x="340" y="387" fill="#6c757d" font-size="11" font-weight="normal" text-anchor="start">VG-2025-0040</text><text x="495" y="387" fill="#212529" font-size="11" font-weight="normal" text-anchor="start">Paul Lemoine</text><text x="675" y="387" fill="#212529" font-size="11" font-weight="normal" text-anchor="start">Menu Végétal</text><text x="830" y="387" fill="#212529" font-size="11" font-weight="normal" text-anchor="start">10/08/2025</text><text x="940" y="387" fill="#212529" font-size="11" font-weight="normal" text-anchor="start">550 €</text><rect x="1040" y="373" width="114" height="22" rx="11" fill="#0d6efd"/><text x="1097" y="388" fill="#ffffff" font-size="10" text-anchor="middle">en préparation</text><rect x="1185" y="371" width="110" height="28" rx="4" fill="#ffffff"/><text x="1240" y="390" fill="#0d6efd" font-size="11" text-anchor="middle" font-weight="bold">Changer</text><rect x="1185" y="371" width="110" height="28" rx="4" fill="none" stroke="#0d6efd" stroke-width="1"/><rect x="320" y="411" width="1080" height="48" fill=#f8f9fa"/><text x="340" y="439" fill="#6c757d" font-size="11" font-weight="normal" text-anchor="start">VG-2025-0039</text><text x="495" y="439" fill="#212529" font-size="11" font-weight="normal" text-anchor="start">Lea Martin</text><text x="675" y="439" fill="#212529" font-size="11" font-weight="normal" text-anchor="start">Menu Marin</text><text x="830" y="439" fill="#212529" font-size="11" font-weight="normal" text-anchor="start">05/08/2025</text><text x="940" y="439" fill="#212529" font-size="11" font-weight="normal" text-anchor="start">1 500 €</text><rect x="1040" y="425" width="72" height="22" rx="11" fill="#198754"/><text x="1076" y="440" fill="#ffffff" font-size="10" text-anchor="middle">terminée</text><rect x="1185" y="423" width="110" height="28" rx="4" fill="#ffffff"/><text x="1240" y="442" fill="#0d6efd" font-size="11" text-anchor="middle" font-weight="bold">Changer</text><rect x="1185" y="423" width="110" height="28" rx="4" fill="none" stroke="#0d6efd" stroke-width="1"/><rect x="320" y="463" width="1080" height="48" fill=#ffffff"/><text x="340" y="491" fill="#6c757d" font-size="11" font-weight="normal" text-anchor="start">VG-2025-0038</text><text x="495" y="491" fill="#212529" font-size="11" font-weight="normal" text-anchor="start">Marc Petit</text><text x="675" y="491" fill="#212529" font-size="11" font-weight="normal" text-anchor="start">Menu Prestige</text><text x="830" y="491" fill="#212529" font-size="11" font-weight="normal" text-anchor="start">01/08/2025</text><text x="940" y="491" fill="#212529" font-size="11" font-weight="normal" text-anchor="start">2 140 €</text><rect x="1040" y="477" width="65" height="22" rx="11" fill="#dc3545"/><text x="1072" y="492" fill="#ffffff" font-size="10" text-anchor="middle">annulée</text><rect x="1185" y="475" width="110" height="28" rx="4" fill="#ffffff"/><text x="1240" y="494" fill="#0d6efd" font-size="11" text-anchor="middle" font-weight="bold">Changer</text><rect x="1185" y="475" width="110" height="28" rx="4" fill="none" stroke="#0d6efd" stroke-width="1"/><rect y="840" width="1440" height="60" fill="#212529"/><text x="40" y="868" fill="#6c757d" font-size="12">© 2025 Vite &amp; Gourmand — 12 rue des Chartrons, Bordeaux</text><text x="1100" y="868" fill="#6c757d" font-size="12">CGV · CGU · Contact</text></svg>