<svg xmlns="http://www.w3.org/2000/svg" width="1440" height="900" viewBox="0 0 1440 900" font-family="Arial,sans-serif">
<rect width="1440" height="900" fill="#f8f9fa"/>
<rect width="1440" height="60" fill="#212529"/><text x="40" y="38" fill="#ffffff" font-size="20" font-weight="bold">VITE &amp; GOURMAND</text><text x="250" y="35" fill="#6c757d" font-size="11">Traiteur · Bordeaux</text><text x="700" y="35" fill="#adb5bd" font-size="14" font-weight="normal">Accueil</text><text x="830" y="35" fill="#adb5bd" font-size="14" font-weight="normal">Nos menus</text><text x="960" y="35" fill="#adb5bd" font-size="14" font-weight="normal">Contact</text><rect x="1280" y="15" width="110" height="32" rx="4" fill="#0d6efd"/><text x="1295" y="35" fill="#ffffff" font-size="13">Mon espace</text><rect x="40" y="80" width="220" height="700" rx="8" fill="#ffffff" stroke="#dee2e6" stroke-width="1"/><rect x="40" y="80" width="220" height="80" rx="8" fill="#ffffff" stroke="#dee2e6"/><circle cx="150" cy="115" r="22" fill="#dc3545"/><text x="150" y="152" fill="#212529" font-size="11" font-weight="bold" text-anchor="middle">Administration</text><rect x="40" y="175" width="220" height="36" fill="#0d6efd"/><text x="60" y="198" fill="#ffffff" font-size="12" font-weight="normal" text-anchor="start">Tableau de bord</text><rect x="40" y="211" width="220" height="36" fill="#ffffff"/><text x="60" y="234" fill="#212529" font-size="12" font-weight="normal" text-anchor="start">Commandes</text><rect x="40" y="247" width="220" height="36" fill="#ffffff"/><text x="60" y="270" fill="#212529" font-size="12" font-weight="normal" text-anchor="start">Menus</text><rect x="40" y="283" width="220" height="36" fill="#ffffff"/><text x="60" y="306" fill="#212529" font-size="12" font-weight="normal" text-anchor="start">Créer un employé</text><rect x="40" y="319" width="220" height="36" fill="#ffffff"/><text x="60" y="342" fill="#212529" font-size="12" font-weight="normal" text-anchor="start">Avis clients</text><rect x="40" y="355" width="220" height="36" fill="#ffffff"/><text x="60" y="378" fill="#212529" font-size="12" font-weight="normal" text-anchor="start">Statistiques</text><rect x="40" y="401" width="220" height="36" fill="#ffffff"/><text x="60" y="424" fill="#dc3545" font-size="12" font-weight="normal" text-anchor="start">Déconnexion</text><text x="320" y="105" fill="#212529" font-size="26" font-weight="bold" text-anchor="start">Tableau de bord</text><rect x="320" y="130" width="250" height="100" rx="8" fill="#ffffff" stroke="#dee2e6" stroke-width="1"/><text x="445" y="185" fill="#198754" font-size="28" font-weight="bold" text-anchor="middle">12 840,00 €</text><text x="445" y="210" fill="#6c757d" font-size="12" font-weight="normal" text-anchor="middle">Chiffre d'affaires</text><rect x="590" y="130" width="250" height="100" rx="8" fill="#ffffff" stroke="#dee2e6" stroke-width="1"/><text x="715" y="185" fill="#0d6efd" font-size="28" font-weight="bold" text-anchor="middle">8</text><text x="715" y="210" fill="#6c757d" font-size="12" font-weight="normal" text-anchor="middle">Commandes totales</text><rect x="860" y="130" width="250" height="100" rx="8" fill="#ffffff" stroke="#dee2e6" stroke-width="1"/><text x="985" y="185" fill="#ffc107" font-size="28" font-weight="bold" text-anchor="middle">3</text><text x="985" y="210" fill="#6c757d" font-size="12" font-weight="normal" text-anchor="middle">En attente</text><rect x="1130" y="130" width="250" height="100" rx="8" fill="#ffffff" stroke="#dee2e6" stroke-width="1"/><text x="1255" y="185" fill="#212529" font-size="28" font-weight="bold" text-anchor="middle">2</text><text x="1255" y="210" fill="#6c757d" font-size="12" font-weight="normal" text-anchor="middle">Employés actifs</text><rect x="320" y="250" width="420" height="220" rx="8" fill="#ffffff" stroke="#dee2e6" stroke-width="1"/><text x="340" y="278" fill="#212529" font-size="14" font-weight="bold" text-anchor="start">Commandes par statut</text><rect x="340" y="295" width="86" height="22" rx="11" fill="#ffc107"/><text x="383" y="310" fill="#212529" font-size="10" text-anchor="middle">en attente</text><text x="700" y="309" fill="#212529" font-size="16" font-weight="bold" text-anchor="end">3</text><rect x="340" y="337" width="72" height="22" rx="11" fill="#0dcaf0"/><text x="376" y="352" fill="#ffffff" font-size="10" text-anchor="middle">acceptée</text><text x="700" y="351" fill="#212529" font-size="16" font-weight="bold" text-anchor="end">1</text><rect x="340" y="379" width="114" height="22" rx="11" fill="#0d6efd"/><text x="397" y="394" fill="#ffffff" font-size="10" text-anchor="middle">en préparation</text><text x="700" y="393" fill="#212529" font-size="16" font-weight="bold" text-anchor="end">2</text><rect x="340" y="421" width="72" height="22" rx="11" fill="#198754"/><text x="376" y="436" fill="#ffffff" font-size="10" text-anchor="middle">terminée</text><text x="700" y="435" fill="#212529" font-size="16" font-weight="bold" text-anchor="end">2</text><rect x="760" y="250" width="620" height="220" rx="8" fill="#ffffff" stroke="#dee2e6" stroke-width="1"/><text x="780" y="278" fill="#212529" font-size="14" font-weight="bold" text-anchor="start">Employés</text><rect x="1310" y="255" width="50" height="28" rx="4" fill="#0d6efd"/><text x="1335" y="274" fill="#ffffff" font-size="10" text-anchor="middle" font-weight="bold">+ Créer</text><text x="780" y="313" fill="#212529" font-size="13" font-weight="bold" text-anchor="start">Jean Martin</text><text x="780" y="329" fill="#6c757d" font-size="11" font-weight="normal" text-anchor="start">jean@vg.fr</text><rect x="1160" y="305" width="90" height="28" rx="4" fill="#ffc107"/><text x="1205" y="324" fill="#212529" font-size="11" text-anchor="middle" font-weight="bold">Désactiver</text><text x="780" y="368" fill="#212529" font-size="13" font-weight="bold" text-anchor="start">Marie Duval</text><text x="780" y="384" fill="#6c757d" font-size="11" font-weight="normal" text-anchor="start">marie@vg.fr</text><rect x="1160" y="360" width="90" height="28" rx="4" fill="#198754"/><text x="1205" y="379" fill="#ffffff" font-size="11" text-anchor="middle" font-weight="bold">Activer</text><rect x="320" y="490" width="1060" height="360" rx="8" fill="#ffffff" stroke="#dee2e6" stroke-width="1"/><text x="340" y="515" fill="#212529" font-size="14" font-weight="bold" text-anchor="start">Derniers avis clients</text><rect x="340" y="535" width="1020" height="120" rx="6" fill="#f8f9fa"/><text x="360" y="561" fill="#212529" font-size="13" font-weight="bold" text-anchor="start">Sophie B.</text><text x="360" y="579" fill="#6c757d" font-size="11" font-weight="normal" text-anchor="start">Menu Prestige</text><text x="700" y="561" fill="#ffc107" font-size="18" font-weight="normal" text-anchor="start">★★★★★</text><text x="360" y="603" fill="#212529" font-size="12" font-weight="normal" text-anchor="start">Excellent service, cuisine raffinée. Je recommande !</text><rect x="1230" y="553" width="100" height="30" rx="4" fill="#198754"/><text x="1280" y="573" fill="#ffffff" font-size="11" text-anchor="middle" font-weight="bold">Publier</text><rect x="1230" y="595" width="100" height="30" rx="4" fill="#dc3545"/><text x="1280" y="615" fill="#ffffff" font-size="11" text-anchor="middle" font-weight="bold">Refuser</text><rect x="340" y="675" width="1020" height="120" rx="6" fill="#f8f9fa"/><text x="360" y="701" fill="#212529" font-size="13" font-weight="bold" text-anchor="start">Paul L.</text><text x="360" y="719" fill="#6c757d" font-size="11" font-weight="normal" text-anchor="start">Menu Terroir</text><text x="700" y="701" fill="#ffc107" font-size="18" font-weight="normal" text-anchor="start">★★★★☆</text><text x="360" y="743" fill="#212529" font-size="12" font-weight="normal" text-anchor="start">Très bon repas, légèrement en retard à la livraison.</text><rect x="1230" y="693" width="100" height="30" rx="4" fill="#198754"/><text x="1280" y="713" fill="#ffffff" font-size="11" text-anchor="middle" font-weight="bold">Publier</text><rect x="1230" y="735" width="100" height="30" rx="4" fill="#dc3545"/><text x="1280" y="755" fill="#ffffff" font-size="11" text-anchor="middle" font-weight="bold">Refuser</text><rect y="840" width="1440" height="60" fill="#212529"/><text x="40" y="868" fill="#6c757d" font-size="12">© 2025 Vite &amp; Gourmand — 12 rue des Chartrons, Bordeaux</text><text x="1100" y="868" fill="#6c757d" font-size="12">CGV · CGU · Contact</text></svg>