<svg xmlns="http://www.w3.org/2000/svg" width="1440" height="900" viewBox="0 0 1440 900" font-family="Arial,sans-serif">
<rect width="1440" height="900" fill="#f8f9fa"/>
<rect width="1440" height="60" fill="#212529"/><text x="40" y="38" fill="#ffffff" font-size="20" font-weight="bold">VITE &amp; GOURMAND</text><text x="250" y="35" fill="#6c757d" font-size="11">Traiteur · Bordeaux</text><text x="700" y="35" fill="#adb5bd" font-size="14" font-weight="normal">Accueil</text><text x="830" y="35" fill="#adb5bd" font-size="14" font-weight="normal">Nos menus</text><text x="960" y="35" fill="#ffffff" font-size="14" font-weight="bold">Contact</text><rect x="1280" y="15" width="110" height="32" rx="4" fill="#0d6efd"/><text x="1295" y="35" fill="#ffffff" font-size="13">Mon espace</text><text x="720" y="110" fill="#212529" font-size="30" font-weight="bold" text-anchor="middle">Contactez-nous</text><text x="720" y="135" fill="#6c757d" font-size="14" font-weight="normal" text-anchor="middle">Notre équipe vous répond sous 24h.</text><rect x="200" y="158" width="620" height="620" rx="8" fill="#ffffff" stroke="#dee2e6" stroke-width="1"/><text x="220" y="180" fill="#212529" font-size="12" font-weight="bold" text-anchor="start">Nom complet *</text><rect x="220" y="190" width="560" height="36" rx="6" fill="#ffffff" stroke="#dee2e6" stroke-width="1.5"/><text x="232" y="213" fill="#6c757d" font-size="13">Jean Dupont</text><text x="220" y="260" fill="#212529" font-size="12" font-weight="bold" text-anchor="start">Email *</text><rect x="220" y="270" width="560" height="36" rx="6" fill="#ffffff" stroke="#dee2e6" stroke-width="1.5"/><text x="232" y="293" fill="#6c757d" font-size="13">jean@email.fr</text><text x="220" y="340" fill="#212529" font-size="12" font-weight="bold" text-anchor="start">Téléphone</text><rect x="220" y="350" width="560" height="36" rx="6" fill="#ffffff" stroke="#dee2e6" stroke-width="1.5"/><text x="232" y="373" fill="#6c757d" font-size="13">06 00 00 00 00</text><text x="220" y="420" fill="#212529" font-size="12" font-weight="bold" text-anchor="start">Sujet *</text><rect x="220" y="430" width="560" height="36" rx="6" fill="#ffffff" stroke="#dee2e6" stroke-width="1.5"/><text x="232" y="453" fill="#6c757d" font-size="13">Demande de devis</text><text x="220" y="508" fill="#212529" font-size="12" font-weight="bold" text-anchor="start">Message *</text><rect x="220" y="520" width="560" height="100" rx="6" fill="#ffffff" stroke="#dee2e6" stroke-width="1.5"/><text x="235" y="545" fill="#6c757d" font-size="13" font-weight="normal" text-anchor="start">Votre message…</text><rect x="220" y="640" width="560" height="44" rx="8" fill="#198754"/><text x="500" y="667" fill="#ffffff" font-size="13" text-anchor="middle" font-weight="bold">Envoyer le message</text><rect x="860" y="158" width="400" height="400" rx="8" fill="#ffffff" stroke="#dee2e6" stroke-width="1"/><text x="880" y="195" fill="#212529" font-size="16" font-weight="bold" text-anchor="start">Vite &amp; Gourmand</text><text x="880" y="218" fill="#6c757d" font-size="12" font-weight="normal" text-anchor="start">Traiteur bordelais depuis 25 ans</text><text x="880" y="250" fill="#212529" font-size="13" font-weight="normal" text-anchor="start">📍  12 rue des Chartrons, 33000 Bordeaux</text><text x="880" y="290" fill="#212529" font-size="13" font-weight="normal" text-anchor="start">📞  05 56 00 00 00</text><text x="880" y="330" fill="#212529" font-size="13" font-weight="normal" text-anchor="start">✉  contact@vite-gourmand.fr</text><line x1="880" y1="380" x2="1240" y2="380" stroke="#dee2e6"/><text x="880" y="405" fill="#212529" font-size="14" font-weight="bold" text-anchor="start">Horaires</text><text x="880" y="425" fill="#6c757d" font-size="12" font-weight="normal" text-anchor="start">Lun – Ven</text><text x="1100" y="425" fill="#212529" font-size="12" font-weight="normal" text-anchor="start">9h – 18h</text><text x="880" y="453" fill="#6c757d" font-size="12" font-weight="normal" text-anchor="start">Samedi</text><text x="1100" y="453" fill="#212529" font-size="12" font-weight="normal" text-anchor="start">9h – 13h</text><text x="880" y="481" fill="#6c757d" font-size="12" font-weight="normal" text-anchor="start">Dimanche</text><text x="1100" y="481" fill="#212529" font-size="12" font-weight="normal" text-anchor="start">Fermé</text><rect y="840" width="1440" height="60" fill="#212529"/><text x="40" y="868" fill="#6c757d" font-size="12">© 2025 Vite &amp; Gourmand — 12 rue des Chartrons, Bordeaux</text><text x="1100" y="868" fill="#6c757d" font-size="12">CGV · CGU · Contact</text></svg>