<svg xmlns="http://www.w3.org/2000/svg" width="1440" height="900" viewBox="0 0 1440 900" font-family="Arial,sans-serif">
<rect width="1440" height="900" fill="#f8f9fa"/>
<rect width="1440" height="60" fill="#212529"/><text x="40" y="38" fill="#ffffff" font-size="20" font-weight="bold">VITE &amp; GOURMAND</text><text x="250" y="35" fill="#6c757d" font-size="11">Traiteur · Bordeaux</text><text x="700" y="35" fill="#adb5bd" font-size="14" font-weight="normal">Accueil</text><text x="830" y="35" fill="#adb5bd" font-size="14" font-weight="normal">Nos menus</text><text x="960" y="35" fill="#adb5bd" font-size="14" font-weight="normal">Contact</text><rect x="1280" y="15" width="110" height="32" rx="4" fill="#0d6efd"/><text x="1295" y="35" fill="#ffffff" font-size="13">Mon espace</text><rect x="200" y="100" width="460" height="560" rx="8" fill="#ffffff" stroke="#dee2e6" stroke-width="1"/><rect x="200" y="100" width="460" height="60" rx="8" fill="#212529"/><text x="430" y="138" fill="#ffffff" font-size="16" font-weight="bold" text-anchor="middle">Connexion</text><text x="225" y="196" fill="#212529" font-size="12" font-weight="bold" text-anchor="start">Email</text><rect x="225" y="206" width="410" height="36" rx="6" fill="#ffffff" stroke="#dee2e6" stroke-width="1.5"/><text x="237" y="229" fill="#6c757d" font-size="13">votre@email.fr</text><text x="225" y="278" fill="#212529" font-size="12" font-weight="bold" text-anchor="start">Mot de passe</text><rect x="225" y="288" width="410" height="36" rx="6" fill="#ffffff" stroke="#dee2e6" stroke-width="1.5"/><text x="237" y="311" fill="#6c757d" font-size="13">••••••••</text><text x="490" y="344" fill="#0d6efd" font-size="12" font-weight="normal" text-anchor="end">Mot de passe oublié ?</text><rect x="225" y="360" width="410" height="44" rx="8" fill="#0d6efd"/><text x="430" y="387" fill="#ffffff" font-size="13" text-anchor="middle" font-weight="bold">Se connecter</text><line x1="225" y1="430" x2="635" y2="430" stroke="#dee2e6"/><text x="430" y="428" fill="#6c757d" font-size="12" font-weight="normal" text-anchor="middle">   ou   </text><rect x="225" y="448" width="410" height="44" rx="8" fill="#ffffff"/><text x="430" y="475" fill="#212529" font-size="13" text-anchor="middle" font-weight="bold">Créer un compte</text><rect x="225" y="448" width="410" height="44" rx="8" fill="none" stroke="#dee2e6" stroke-width="1.5"/><rect x="720" y="100" width="520" height="660" rx="8" fill="#ffffff" stroke="#dee2e6" stroke-width="1"/><rect x="720" y="100" width="520" height="60" rx="8" fill="#198754"/><text x="980" y="138" fill="#ffffff" font-size="16" font-weight="bold" text-anchor="middle">Créer un compte</text><text x="740" y="185" fill="#212529" font-size="12" font-weight="bold" text-anchor="start">Prénom *</text><rect x="740" y="195" width="220" height="36" rx="6" fill="#ffffff" stroke="#dee2e6" stroke-width="1.5"/><text x="752" y="218" fill="#6c757d" font-size="13">Jean</text><text x="980" y="185" fill="#212529" font-size="12" font-weight="bold" text-anchor="start">Nom *</text><rect x="980" y="195" width="220" height="36" rx="6" fill="#ffffff" stroke="#dee2e6" stroke-width="1.5"/><text x="992" y="218" fill="#6c757d" font-size="13">Dupont</text><text x="740" y="265" fill="#212529" font-size="12" font-weight="bold" text-anchor="start">Email *</text><rect x="740" y="275" width="460" height="36" rx="6" fill="#ffffff" stroke="#dee2e6" stroke-width="1.5"/><text x="752" y="298" fill="#6c757d" font-size="13">jean@email.fr</text><text x="740" y="345" fill="#212529" font-size="12" font-weight="bold" text-anchor="start">Téléphone</text><rect x="740" y="355" width="460" height="36" rx="6" fill="#ffffff" stroke="#dee2e6" stroke-width="1.5"/><text x="752" y="378" fill="#6c757d" font-size="13">06 00 00 00 00</text><text x="740" y="425" fill="#212529" font-size="12" font-weight="bold" text-anchor="start">Mot de passe *</text><rect x="740" y="435" width="460" height="36" rx="6" fill="#ffffff" stroke="#dee2e6" stroke-width="1.5"/><text x="752" y="458" fill="#6c757d" font-size="13">••••••••</text><text x="740" y="505" fill="#212529" font-size="12" font-weight="bold" text-anchor="start">Confirmer le mot de passe *</text><rect x="740" y="515" width="460" height="36" rx="6" fill="#ffffff" stroke="#dee2e6" stroke-width="1.5"/><text x="752" y="538" fill="#6c757d" font-size="13">••••••••</text><rect x="740" y="590" width="460" height="44" rx="8" fill="#198754"/><text x="970" y="617" fill="#ffffff" font-size="13" text-anchor="middle" font-weight="bold">S'inscrire</text><rect x="200" y="678" width="1040" height="56" rx="8" fill="#f8f9fa" stroke="#dee2e6"/><text x="720" y="706" fill="#6c757d" font-size="12" font-weight="normal" text-anchor="middle">🔒  Vos données sont protégées conformément au RGPD.</text><text x="720" y="724" fill="#6c757d" font-size="12" font-weight="normal" text-anchor="middle">En créant un compte, vous acceptez nos CGU et notre Politique de confidentialité.</text><rect y="840" width="1440" height="60" fill="#212529"/><text x="40" y="868" fill="#6c757d" font-size="12">© 2025 Vite &amp; Gourmand — 12 rue des Chartrons, Bordeaux</text><text x="1100" y="868" fill="#6c757d" font-size="12">CGV · CGU · Contact</text></svg>